<?xml version="1.0" encoding="UTF-8"?>
<svg xmlns="http://www.w3.org/2000/svg" xmlns:xlink="http://www.w3.org/1999/xlink" width="1000" height="1000" viewBox="0 0 1000 1000">
<rect x="-100" y="-100" width="1200" height="1200" fill="rgb(100%, 100%, 100%)" fill-opacity="1"/>
<path fill-rule="nonzero" fill="rgb(0%, 0%, 0%)" fill-opacity="1" d="M 324.324219 108.109375 L 351.351562 108.109375 L 351.351562 135.136719 L 324.324219 135.136719 Z M 324.324219 108.109375 "/>
<path fill-rule="nonzero" fill="rgb(0%, 0%, 0%)" fill-opacity="1" d="M 378.378906 108.109375 L 405.40625 108.109375 L 405.40625 135.136719 L 378.378906 135.136719 Z M 378.378906 108.109375 "/>
<path fill-rule="nonzero" fill="rgb(0%, 0%, 0%)" fill-opacity="1" d="M 405.40625 108.109375 L 432.433594 108.109375 L 432.433594 135.136719 L 405.40625 135.136719 Z M 405.40625 108.109375 "/>
<path fill-rule="nonzero" fill="rgb(0%, 0%, 0%)" fill-opacity="1" d="M 432.433594 108.109375 L 459.460938 108.109375 L 459.460938 135.136719 L 432.433594 135.136719 Z M 432.433594 108.109375 "/>
<path fill-rule="nonzero" fill="rgb(0%, 0%, 0%)" fill-opacity="1" d="M 621.621094 108.109375 L 648.648438 108.109375 L 648.648438 135.136719 L 621.621094 135.136719 Z M 621.621094 108.109375 "/>
<path fill-rule="nonzero" fill="rgb(0%, 0%, 0%)" fill-opacity="1" d="M 648.648438 108.109375 L 675.675781 108.109375 L 675.675781 135.136719 L 648.648438 135.136719 Z M 648.648438 108.109375 "/>
<path fill-rule="nonzero" fill="rgb(0%, 0%, 0%)" fill-opacity="1" d="M 540.539062 135.136719 L 567.566406 135.136719 L 567.566406 162.164062 L 540.539062 162.164062 Z M 540.539062 135.136719 "/>
<path fill-rule="nonzero" fill="rgb(0%, 0%, 0%)" fill-opacity="1" d="M 567.566406 135.136719 L 594.59375 135.136719 L 594.59375 162.164062 L 567.566406 162.164062 Z M 567.566406 135.136719 "/>
<path fill-rule="nonzero" fill="rgb(0%, 0%, 0%)" fill-opacity="1" d="M 594.59375 135.136719 L 621.621094 135.136719 L 621.621094 162.164062 L 594.59375 162.164062 Z M 594.59375 135.136719 "/>
<path fill-rule="nonzero" fill="rgb(0%, 0%, 0%)" fill-opacity="1" d="M 351.351562 162.164062 L 378.378906 162.164062 L 378.378906 189.1875 L 351.351562 189.1875 Z M 351.351562 162.164062 "/>
<path fill-rule="nonzero" fill="rgb(0%, 0%, 0%)" fill-opacity="1" d="M 405.40625 162.164062 L 432.433594 162.164062 L 432.433594 189.1875 L 405.40625 189.1875 Z M 405.40625 162.164062 "/>
<path fill-rule="nonzero" fill="rgb(0%, 0%, 0%)" fill-opacity="1" d="M 432.433594 162.164062 L 459.460938 162.164062 L 459.460938 189.1875 L 432.433594 189.1875 Z M 432.433594 162.164062 "/>
<path fill-rule="nonzero" fill="rgb(0%, 0%, 0%)" fill-opacity="1" d="M 459.460938 162.164062 L 486.488281 162.164062 L 486.488281 189.1875 L 459.460938 189.1875 Z M 459.460938 162.164062 "/>
<path fill-rule="nonzero" fill="rgb(0%, 0%, 0%)" fill-opacity="1" d="M 513.511719 162.164062 L 540.539062 162.164062 L 540.539062 189.1875 L 513.511719 189.1875 Z M 513.511719 162.164062 "/>
<path fill-rule="nonzero" fill="rgb(0%, 0%, 0%)" fill-opacity="1" d="M 540.539062 162.164062 L 567.566406 162.164062 L 567.566406 189.1875 L 540.539062 189.1875 Z M 540.539062 162.164062 "/>
<path fill-rule="nonzero" fill="rgb(0%, 0%, 0%)" fill-opacity="1" d="M 621.621094 162.164062 L 648.648438 162.164062 L 648.648438 189.1875 L 621.621094 189.1875 Z M 621.621094 162.164062 "/>
<path fill-rule="nonzero" fill="rgb(0%, 0%, 0%)" fill-opacity="1" d="M 648.648438 162.164062 L 675.675781 162.164062 L 675.675781 189.1875 L 648.648438 189.1875 Z M 648.648438 162.164062 "/>
<path fill-rule="nonzero" fill="rgb(0%, 0%, 0%)" fill-opacity="1" d="M 324.324219 189.1875 L 351.351562 189.1875 L 351.351562 216.214844 L 324.324219 216.214844 Z M 324.324219 189.1875 "/>
<path fill-rule="nonzero" fill="rgb(0%, 0%, 0%)" fill-opacity="1" d="M 351.351562 189.1875 L 378.378906 189.1875 L 378.378906 216.214844 L 351.351562 216.214844 Z M 351.351562 189.1875 "/>
<path fill-rule="nonzero" fill="rgb(0%, 0%, 0%)" fill-opacity="1" d="M 378.378906 189.1875 L 405.40625 189.1875 L 405.40625 216.214844 L 378.378906 216.214844 Z M 378.378906 189.1875 "/>
<path fill-rule="nonzero" fill="rgb(0%, 0%, 0%)" fill-opacity="1" d="M 432.433594 189.1875 L 459.460938 189.1875 L 459.460938 216.214844 L 432.433594 216.214844 Z M 432.433594 189.1875 "/>
<path fill-rule="nonzero" fill="rgb(0%, 0%, 0%)" fill-opacity="1" d="M 486.488281 189.1875 L 513.511719 189.1875 L 513.511719 216.214844 L 486.488281 216.214844 Z M 486.488281 189.1875 "/>
<path fill-rule="nonzero" fill="rgb(0%, 0%, 0%)" fill-opacity="1" d="M 513.511719 189.1875 L 540.539062 189.1875 L 540.539062 216.214844 L 513.511719 216.214844 Z M 513.511719 189.1875 "/>
<path fill-rule="nonzero" fill="rgb(0%, 0%, 0%)" fill-opacity="1" d="M 540.539062 189.1875 L 567.566406 189.1875 L 567.566406 216.214844 L 540.539062 216.214844 Z M 540.539062 189.1875 "/>
<path fill-rule="nonzero" fill="rgb(0%, 0%, 0%)" fill-opacity="1" d="M 594.59375 189.1875 L 621.621094 189.1875 L 621.621094 216.214844 L 594.59375 216.214844 Z M 594.59375 189.1875 "/>
<path fill-rule="nonzero" fill="rgb(0%, 0%, 0%)" fill-opacity="1" d="M 648.648438 189.1875 L 675.675781 189.1875 L 675.675781 216.214844 L 648.648438 216.214844 Z M 648.648438 189.1875 "/>
<path fill-rule="nonzero" fill="rgb(0%, 0%, 0%)" fill-opacity="1" d="M 324.324219 216.214844 L 351.351562 216.214844 L 351.351562 243.242188 L 324.324219 243.242188 Z M 324.324219 216.214844 "/>
<path fill-rule="nonzero" fill="rgb(0%, 0%, 0%)" fill-opacity="1" d="M 351.351562 216.214844 L 378.378906 216.214844 L 378.378906 243.242188 L 351.351562 243.242188 Z M 351.351562 216.214844 "/>
<path fill-rule="nonzero" fill="rgb(0%, 0%, 0%)" fill-opacity="1" d="M 432.433594 216.214844 L 459.460938 216.214844 L 459.460938 243.242188 L 432.433594 243.242188 Z M 432.433594 216.214844 "/>
<path fill-rule="nonzero" fill="rgb(0%, 0%, 0%)" fill-opacity="1" d="M 459.460938 216.214844 L 486.488281 216.214844 L 486.488281 243.242188 L 459.460938 243.242188 Z M 459.460938 216.214844 "/>
<path fill-rule="nonzero" fill="rgb(0%, 0%, 0%)" fill-opacity="1" d="M 486.488281 216.214844 L 513.511719 216.214844 L 513.511719 243.242188 L 486.488281 243.242188 Z M 486.488281 216.214844 "/>
<path fill-rule="nonzero" fill="rgb(0%, 0%, 0%)" fill-opacity="1" d="M 540.539062 216.214844 L 567.566406 216.214844 L 567.566406 243.242188 L 540.539062 243.242188 Z M 540.539062 216.214844 "/>
<path fill-rule="nonzero" fill="rgb(0%, 0%, 0%)" fill-opacity="1" d="M 594.59375 216.214844 L 621.621094 216.214844 L 621.621094 243.242188 L 594.59375 243.242188 Z M 594.59375 216.214844 "/>
<path fill-rule="nonzero" fill="rgb(0%, 0%, 0%)" fill-opacity="1" d="M 621.621094 216.214844 L 648.648438 216.214844 L 648.648438 243.242188 L 621.621094 243.242188 Z M 621.621094 216.214844 "/>
<path fill-rule="nonzero" fill="rgb(0%, 0%, 0%)" fill-opacity="1" d="M 324.324219 243.242188 L 351.351562 243.242188 L 351.351562 270.269531 L 324.324219 270.269531 Z M 324.324219 243.242188 "/>
<path fill-rule="nonzero" fill="rgb(0%, 0%, 0%)" fill-opacity="1" d="M 378.378906 243.242188 L 405.40625 243.242188 L 405.40625 270.269531 L 378.378906 270.269531 Z M 378.378906 243.242188 "/>
<path fill-rule="nonzero" fill="rgb(0%, 0%, 0%)" fill-opacity="1" d="M 405.40625 243.242188 L 432.433594 243.242188 L 432.433594 270.269531 L 405.40625 270.269531 Z M 405.40625 243.242188 "/>
<path fill-rule="nonzero" fill="rgb(0%, 0%, 0%)" fill-opacity="1" d="M 432.433594 243.242188 L 459.460938 243.242188 L 459.460938 270.269531 L 432.433594 270.269531 Z M 432.433594 243.242188 "/>
<path fill-rule="nonzero" fill="rgb(0%, 0%, 0%)" fill-opacity="1" d="M 459.460938 243.242188 L 486.488281 243.242188 L 486.488281 270.269531 L 459.460938 270.269531 Z M 459.460938 243.242188 "/>
<path fill-rule="nonzero" fill="rgb(0%, 0%, 0%)" fill-opacity="1" d="M 486.488281 243.242188 L 513.511719 243.242188 L 513.511719 270.269531 L 486.488281 270.269531 Z M 486.488281 243.242188 "/>
<path fill-rule="nonzero" fill="rgb(0%, 0%, 0%)" fill-opacity="1" d="M 513.511719 243.242188 L 540.539062 243.242188 L 540.539062 270.269531 L 513.511719 270.269531 Z M 513.511719 243.242188 "/>
<path fill-rule="nonzero" fill="rgb(0%, 0%, 0%)" fill-opacity="1" d="M 567.566406 243.242188 L 594.59375 243.242188 L 594.59375 270.269531 L 567.566406 270.269531 Z M 567.566406 243.242188 "/>
<path fill-rule="nonzero" fill="rgb(0%, 0%, 0%)" fill-opacity="1" d="M 621.621094 243.242188 L 648.648438 243.242188 L 648.648438 270.269531 L 621.621094 270.269531 Z M 621.621094 243.242188 "/>
<path fill-rule="nonzero" fill="rgb(0%, 0%, 0%)" fill-opacity="1" d="M 648.648438 243.242188 L 675.675781 243.242188 L 675.675781 270.269531 L 648.648438 270.269531 Z M 648.648438 243.242188 "/>
<path fill-rule="nonzero" fill="rgb(0%, 0%, 0%)" fill-opacity="1" d="M 324.324219 270.269531 L 351.351562 270.269531 L 351.351562 297.296875 L 324.324219 297.296875 Z M 324.324219 270.269531 "/>
<path fill-rule="nonzero" fill="rgb(0%, 0%, 0%)" fill-opacity="1" d="M 378.378906 270.269531 L 405.40625 270.269531 L 405.40625 297.296875 L 378.378906 297.296875 Z M 378.378906 270.269531 "/>
<path fill-rule="nonzero" fill="rgb(0%, 0%, 0%)" fill-opacity="1" d="M 432.433594 270.269531 L 459.460938 270.269531 L 459.460938 297.296875 L 432.433594 297.296875 Z M 432.433594 270.269531 "/>
<path fill-rule="nonzero" fill="rgb(0%, 0%, 0%)" fill-opacity="1" d="M 486.488281 270.269531 L 513.511719 270.269531 L 513.511719 297.296875 L 486.488281 297.296875 Z M 486.488281 270.269531 "/>
<path fill-rule="nonzero" fill="rgb(0%, 0%, 0%)" fill-opacity="1" d="M 540.539062 270.269531 L 567.566406 270.269531 L 567.566406 297.296875 L 540.539062 297.296875 Z M 540.539062 270.269531 "/>
<path fill-rule="nonzero" fill="rgb(0%, 0%, 0%)" fill-opacity="1" d="M 594.59375 270.269531 L 621.621094 270.269531 L 621.621094 297.296875 L 594.59375 297.296875 Z M 594.59375 270.269531 "/>
<path fill-rule="nonzero" fill="rgb(0%, 0%, 0%)" fill-opacity="1" d="M 648.648438 270.269531 L 675.675781 270.269531 L 675.675781 297.296875 L 648.648438 297.296875 Z M 648.648438 270.269531 "/>
<path fill-rule="nonzero" fill="rgb(0%, 0%, 0%)" fill-opacity="1" d="M 324.324219 297.296875 L 351.351562 297.296875 L 351.351562 324.324219 L 324.324219 324.324219 Z M 324.324219 297.296875 "/>
<path fill-rule="nonzero" fill="rgb(0%, 0%, 0%)" fill-opacity="1" d="M 351.351562 297.296875 L 378.378906 297.296875 L 378.378906 324.324219 L 351.351562 324.324219 Z M 351.351562 297.296875 "/>
<path fill-rule="nonzero" fill="rgb(0%, 0%, 0%)" fill-opacity="1" d="M 405.40625 297.296875 L 432.433594 297.296875 L 432.433594 324.324219 L 405.40625 324.324219 Z M 405.40625 297.296875 "/>
<path fill-rule="nonzero" fill="rgb(0%, 0%, 0%)" fill-opacity="1" d="M 486.488281 297.296875 L 513.511719 297.296875 L 513.511719 324.324219 L 486.488281 324.324219 Z M 486.488281 297.296875 "/>
<path fill-rule="nonzero" fill="rgb(0%, 0%, 0%)" fill-opacity="1" d="M 567.566406 297.296875 L 594.59375 297.296875 L 594.59375 324.324219 L 567.566406 324.324219 Z M 567.566406 297.296875 "/>
<path fill-rule="nonzero" fill="rgb(0%, 0%, 0%)" fill-opacity="1" d="M 621.621094 297.296875 L 648.648438 297.296875 L 648.648438 324.324219 L 621.621094 324.324219 Z M 621.621094 297.296875 "/>
<path fill-rule="nonzero" fill="rgb(0%, 0%, 0%)" fill-opacity="1" d="M 648.648438 297.296875 L 675.675781 297.296875 L 675.675781 324.324219 L 648.648438 324.324219 Z M 648.648438 297.296875 "/>
<path fill-rule="nonzero" fill="rgb(0%, 0%, 0%)" fill-opacity="1" d="M 108.109375 324.324219 L 135.136719 324.324219 L 135.136719 351.351562 L 108.109375 351.351562 Z M 108.109375 324.324219 "/>
<path fill-rule="nonzero" fill="rgb(0%, 0%, 0%)" fill-opacity="1" d="M 216.214844 324.324219 L 243.242188 324.324219 L 243.242188 351.351562 L 216.214844 351.351562 Z M 216.214844 324.324219 "/>
<path fill-rule="nonzero" fill="rgb(0%, 0%, 0%)" fill-opacity="1" d="M 270.269531 324.324219 L 297.296875 324.324219 L 297.296875 351.351562 L 270.269531 351.351562 Z M 270.269531 324.324219 "/>
<path fill-rule="nonzero" fill="rgb(0%, 0%, 0%)" fill-opacity="1" d="M 297.296875 324.324219 L 324.324219 324.324219 L 324.324219 351.351562 L 297.296875 351.351562 Z M 297.296875 324.324219 "/>
<path fill-rule="nonzero" fill="rgb(0%, 0%, 0%)" fill-opacity="1" d="M 324.324219 324.324219 L 351.351562 324.324219 L 351.351562 351.351562 L 324.324219 351.351562 Z M 324.324219 324.324219 "/>
<path fill-rule="nonzero" fill="rgb(0%, 0%, 0%)" fill-opacity="1" d="M 351.351562 324.324219 L 378.378906 324.324219 L 378.378906 351.351562 L 351.351562 351.351562 Z M 351.351562 324.324219 "/>
<path fill-rule="nonzero" fill="rgb(0%, 0%, 0%)" fill-opacity="1" d="M 405.40625 324.324219 L 432.433594 324.324219 L 432.433594 351.351562 L 405.40625 351.351562 Z M 405.40625 324.324219 "/>
<path fill-rule="nonzero" fill="rgb(0%, 0%, 0%)" fill-opacity="1" d="M 432.433594 324.324219 L 459.460938 324.324219 L 459.460938 351.351562 L 432.433594 351.351562 Z M 432.433594 324.324219 "/>
<path fill-rule="nonzero" fill="rgb(0%, 0%, 0%)" fill-opacity="1" d="M 459.460938 324.324219 L 486.488281 324.324219 L 486.488281 351.351562 L 459.460938 351.351562 Z M 459.460938 324.324219 "/>
<path fill-rule="nonzero" fill="rgb(0%, 0%, 0%)" fill-opacity="1" d="M 486.488281 324.324219 L 513.511719 324.324219 L 513.511719 351.351562 L 486.488281 351.351562 Z M 486.488281 324.324219 "/>
<path fill-rule="nonzero" fill="rgb(0%, 0%, 0%)" fill-opacity="1" d="M 513.511719 324.324219 L 540.539062 324.324219 L 540.539062 351.351562 L 513.511719 351.351562 Z M 513.511719 324.324219 "/>
<path fill-rule="nonzero" fill="rgb(0%, 0%, 0%)" fill-opacity="1" d="M 540.539062 324.324219 L 567.566406 324.324219 L 567.566406 351.351562 L 540.539062 351.351562 Z M 540.539062 324.324219 "/>
<path fill-rule="nonzero" fill="rgb(0%, 0%, 0%)" fill-opacity="1" d="M 567.566406 324.324219 L 594.59375 324.324219 L 594.59375 351.351562 L 567.566406 351.351562 Z M 567.566406 324.324219 "/>
<path fill-rule="nonzero" fill="rgb(0%, 0%, 0%)" fill-opacity="1" d="M 594.59375 324.324219 L 621.621094 324.324219 L 621.621094 351.351562 L 594.59375 351.351562 Z M 594.59375 324.324219 "/>
<path fill-rule="nonzero" fill="rgb(0%, 0%, 0%)" fill-opacity="1" d="M 621.621094 324.324219 L 648.648438 324.324219 L 648.648438 351.351562 L 621.621094 351.351562 Z M 621.621094 324.324219 "/>
<path fill-rule="nonzero" fill="rgb(0%, 0%, 0%)" fill-opacity="1" d="M 648.648438 324.324219 L 675.675781 324.324219 L 675.675781 351.351562 L 648.648438 351.351562 Z M 648.648438 324.324219 "/>
<path fill-rule="nonzero" fill="rgb(0%, 0%, 0%)" fill-opacity="1" d="M 675.675781 324.324219 L 702.703125 324.324219 L 702.703125 351.351562 L 675.675781 351.351562 Z M 675.675781 324.324219 "/>
<path fill-rule="nonzero" fill="rgb(0%, 0%, 0%)" fill-opacity="1" d="M 702.703125 324.324219 L 729.730469 324.324219 L 729.730469 351.351562 L 702.703125 351.351562 Z M 702.703125 324.324219 "/>
<path fill-rule="nonzero" fill="rgb(0%, 0%, 0%)" fill-opacity="1" d="M 729.730469 324.324219 L 756.757812 324.324219 L 756.757812 351.351562 L 729.730469 351.351562 Z M 729.730469 324.324219 "/>
<path fill-rule="nonzero" fill="rgb(0%, 0%, 0%)" fill-opacity="1" d="M 756.757812 324.324219 L 783.785156 324.324219 L 783.785156 351.351562 L 756.757812 351.351562 Z M 756.757812 324.324219 "/>
<path fill-rule="nonzero" fill="rgb(0%, 0%, 0%)" fill-opacity="1" d="M 783.785156 324.324219 L 810.8125 324.324219 L 810.8125 351.351562 L 783.785156 351.351562 Z M 783.785156 324.324219 "/>
<path fill-rule="nonzero" fill="rgb(0%, 0%, 0%)" fill-opacity="1" d="M 864.863281 324.324219 L 891.890625 324.324219 L 891.890625 351.351562 L 864.863281 351.351562 Z M 864.863281 324.324219 "/>
<path fill-rule="nonzero" fill="rgb(0%, 0%, 0%)" fill-opacity="1" d="M 162.164062 351.351562 L 189.1875 351.351562 L 189.1875 378.378906 L 162.164062 378.378906 Z M 162.164062 351.351562 "/>
<path fill-rule="nonzero" fill="rgb(0%, 0%, 0%)" fill-opacity="1" d="M 189.1875 351.351562 L 216.214844 351.351562 L 216.214844 378.378906 L 189.1875 378.378906 Z M 189.1875 351.351562 "/>
<path fill-rule="nonzero" fill="rgb(0%, 0%, 0%)" fill-opacity="1" d="M 216.214844 351.351562 L 243.242188 351.351562 L 243.242188 378.378906 L 216.214844 378.378906 Z M 216.214844 351.351562 "/>
<path fill-rule="nonzero" fill="rgb(0%, 0%, 0%)" fill-opacity="1" d="M 243.242188 351.351562 L 270.269531 351.351562 L 270.269531 378.378906 L 243.242188 378.378906 Z M 243.242188 351.351562 "/>
<path fill-rule="nonzero" fill="rgb(0%, 0%, 0%)" fill-opacity="1" d="M 351.351562 351.351562 L 378.378906 351.351562 L 378.378906 378.378906 L 351.351562 378.378906 Z M 351.351562 351.351562 "/>
<path fill-rule="nonzero" fill="rgb(0%, 0%, 0%)" fill-opacity="1" d="M 378.378906 351.351562 L 405.40625 351.351562 L 405.40625 378.378906 L 378.378906 378.378906 Z M 378.378906 351.351562 "/>
<path fill-rule="nonzero" fill="rgb(0%, 0%, 0%)" fill-opacity="1" d="M 405.40625 351.351562 L 432.433594 351.351562 L 432.433594 378.378906 L 405.40625 378.378906 Z M 405.40625 351.351562 "/>
<path fill-rule="nonzero" fill="rgb(0%, 0%, 0%)" fill-opacity="1" d="M 621.621094 351.351562 L 648.648438 351.351562 L 648.648438 378.378906 L 621.621094 378.378906 Z M 621.621094 351.351562 "/>
<path fill-rule="nonzero" fill="rgb(0%, 0%, 0%)" fill-opacity="1" d="M 675.675781 351.351562 L 702.703125 351.351562 L 702.703125 378.378906 L 675.675781 378.378906 Z M 675.675781 351.351562 "/>
<path fill-rule="nonzero" fill="rgb(0%, 0%, 0%)" fill-opacity="1" d="M 810.8125 351.351562 L 837.835938 351.351562 L 837.835938 378.378906 L 810.8125 378.378906 Z M 810.8125 351.351562 "/>
<path fill-rule="nonzero" fill="rgb(0%, 0%, 0%)" fill-opacity="1" d="M 108.109375 378.378906 L 135.136719 378.378906 L 135.136719 405.40625 L 108.109375 405.40625 Z M 108.109375 378.378906 "/>
<path fill-rule="nonzero" fill="rgb(0%, 0%, 0%)" fill-opacity="1" d="M 189.1875 378.378906 L 216.214844 378.378906 L 216.214844 405.40625 L 189.1875 405.40625 Z M 189.1875 378.378906 "/>
<path fill-rule="nonzero" fill="rgb(0%, 0%, 0%)" fill-opacity="1" d="M 216.214844 378.378906 L 243.242188 378.378906 L 243.242188 405.40625 L 216.214844 405.40625 Z M 216.214844 378.378906 "/>
<path fill-rule="nonzero" fill="rgb(0%, 0%, 0%)" fill-opacity="1" d="M 270.269531 378.378906 L 297.296875 378.378906 L 297.296875 405.40625 L 270.269531 405.40625 Z M 270.269531 378.378906 "/>
<path fill-rule="nonzero" fill="rgb(0%, 0%, 0%)" fill-opacity="1" d="M 297.296875 378.378906 L 324.324219 378.378906 L 324.324219 405.40625 L 297.296875 405.40625 Z M 297.296875 378.378906 "/>
<path fill-rule="nonzero" fill="rgb(0%, 0%, 0%)" fill-opacity="1" d="M 324.324219 378.378906 L 351.351562 378.378906 L 351.351562 405.40625 L 324.324219 405.40625 Z M 324.324219 378.378906 "/>
<path fill-rule="nonzero" fill="rgb(0%, 0%, 0%)" fill-opacity="1" d="M 351.351562 378.378906 L 378.378906 378.378906 L 378.378906 405.40625 L 351.351562 405.40625 Z M 351.351562 378.378906 "/>
<path fill-rule="nonzero" fill="rgb(0%, 0%, 0%)" fill-opacity="1" d="M 405.40625 378.378906 L 432.433594 378.378906 L 432.433594 405.40625 L 405.40625 405.40625 Z M 405.40625 378.378906 "/>
<path fill-rule="nonzero" fill="rgb(0%, 0%, 0%)" fill-opacity="1" d="M 432.433594 378.378906 L 459.460938 378.378906 L 459.460938 405.40625 L 432.433594 405.40625 Z M 432.433594 378.378906 "/>
<path fill-rule="nonzero" fill="rgb(0%, 0%, 0%)" fill-opacity="1" d="M 459.460938 378.378906 L 486.488281 378.378906 L 486.488281 405.40625 L 459.460938 405.40625 Z M 459.460938 378.378906 "/>
<path fill-rule="nonzero" fill="rgb(0%, 0%, 0%)" fill-opacity="1" d="M 486.488281 378.378906 L 513.511719 378.378906 L 513.511719 405.40625 L 486.488281 405.40625 Z M 486.488281 378.378906 "/>
<path fill-rule="nonzero" fill="rgb(0%, 0%, 0%)" fill-opacity="1" d="M 513.511719 378.378906 L 540.539062 378.378906 L 540.539062 405.40625 L 513.511719 405.40625 Z M 513.511719 378.378906 "/>
<path fill-rule="nonzero" fill="rgb(0%, 0%, 0%)" fill-opacity="1" d="M 594.59375 378.378906 L 621.621094 378.378906 L 621.621094 405.40625 L 594.59375 405.40625 Z M 594.59375 378.378906 "/>
<path fill-rule="nonzero" fill="rgb(0%, 0%, 0%)" fill-opacity="1" d="M 702.703125 378.378906 L 729.730469 378.378906 L 729.730469 405.40625 L 702.703125 405.40625 Z M 702.703125 378.378906 "/>
<path fill-rule="nonzero" fill="rgb(0%, 0%, 0%)" fill-opacity="1" d="M 729.730469 378.378906 L 756.757812 378.378906 L 756.757812 405.40625 L 729.730469 405.40625 Z M 729.730469 378.378906 "/>
<path fill-rule="nonzero" fill="rgb(0%, 0%, 0%)" fill-opacity="1" d="M 756.757812 378.378906 L 783.785156 378.378906 L 783.785156 405.40625 L 756.757812 405.40625 Z M 756.757812 378.378906 "/>
<path fill-rule="nonzero" fill="rgb(0%, 0%, 0%)" fill-opacity="1" d="M 783.785156 378.378906 L 810.8125 378.378906 L 810.8125 405.40625 L 783.785156 405.40625 Z M 783.785156 378.378906 "/>
<path fill-rule="nonzero" fill="rgb(0%, 0%, 0%)" fill-opacity="1" d="M 810.8125 378.378906 L 837.835938 378.378906 L 837.835938 405.40625 L 810.8125 405.40625 Z M 810.8125 378.378906 "/>
<path fill-rule="nonzero" fill="rgb(0%, 0%, 0%)" fill-opacity="1" d="M 864.863281 378.378906 L 891.890625 378.378906 L 891.890625 405.40625 L 864.863281 405.40625 Z M 864.863281 378.378906 "/>
<path fill-rule="nonzero" fill="rgb(0%, 0%, 0%)" fill-opacity="1" d="M 189.1875 405.40625 L 216.214844 405.40625 L 216.214844 432.433594 L 189.1875 432.433594 Z M 189.1875 405.40625 "/>
<path fill-rule="nonzero" fill="rgb(0%, 0%, 0%)" fill-opacity="1" d="M 297.296875 405.40625 L 324.324219 405.40625 L 324.324219 432.433594 L 297.296875 432.433594 Z M 297.296875 405.40625 "/>
<path fill-rule="nonzero" fill="rgb(0%, 0%, 0%)" fill-opacity="1" d="M 378.378906 405.40625 L 405.40625 405.40625 L 405.40625 432.433594 L 378.378906 432.433594 Z M 378.378906 405.40625 "/>
<path fill-rule="nonzero" fill="rgb(0%, 0%, 0%)" fill-opacity="1" d="M 405.40625 405.40625 L 432.433594 405.40625 L 432.433594 432.433594 L 405.40625 432.433594 Z M 405.40625 405.40625 "/>
<path fill-rule="nonzero" fill="rgb(0%, 0%, 0%)" fill-opacity="1" d="M 459.460938 405.40625 L 486.488281 405.40625 L 486.488281 432.433594 L 459.460938 432.433594 Z M 459.460938 405.40625 "/>
<path fill-rule="nonzero" fill="rgb(0%, 0%, 0%)" fill-opacity="1" d="M 513.511719 405.40625 L 540.539062 405.40625 L 540.539062 432.433594 L 513.511719 432.433594 Z M 513.511719 405.40625 "/>
<path fill-rule="nonzero" fill="rgb(0%, 0%, 0%)" fill-opacity="1" d="M 540.539062 405.40625 L 567.566406 405.40625 L 567.566406 432.433594 L 540.539062 432.433594 Z M 540.539062 405.40625 "/>
<path fill-rule="nonzero" fill="rgb(0%, 0%, 0%)" fill-opacity="1" d="M 621.621094 405.40625 L 648.648438 405.40625 L 648.648438 432.433594 L 621.621094 432.433594 Z M 621.621094 405.40625 "/>
<path fill-rule="nonzero" fill="rgb(0%, 0%, 0%)" fill-opacity="1" d="M 648.648438 405.40625 L 675.675781 405.40625 L 675.675781 432.433594 L 648.648438 432.433594 Z M 648.648438 405.40625 "/>
<path fill-rule="nonzero" fill="rgb(0%, 0%, 0%)" fill-opacity="1" d="M 675.675781 405.40625 L 702.703125 405.40625 L 702.703125 432.433594 L 675.675781 432.433594 Z M 675.675781 405.40625 "/>
<path fill-rule="nonzero" fill="rgb(0%, 0%, 0%)" fill-opacity="1" d="M 783.785156 405.40625 L 810.8125 405.40625 L 810.8125 432.433594 L 783.785156 432.433594 Z M 783.785156 405.40625 "/>
<path fill-rule="nonzero" fill="rgb(0%, 0%, 0%)" fill-opacity="1" d="M 162.164062 432.433594 L 189.1875 432.433594 L 189.1875 459.460938 L 162.164062 459.460938 Z M 162.164062 432.433594 "/>
<path fill-rule="nonzero" fill="rgb(0%, 0%, 0%)" fill-opacity="1" d="M 216.214844 432.433594 L 243.242188 432.433594 L 243.242188 459.460938 L 216.214844 459.460938 Z M 216.214844 432.433594 "/>
<path fill-rule="nonzero" fill="rgb(0%, 0%, 0%)" fill-opacity="1" d="M 270.269531 432.433594 L 297.296875 432.433594 L 297.296875 459.460938 L 270.269531 459.460938 Z M 270.269531 432.433594 "/>
<path fill-rule="nonzero" fill="rgb(0%, 0%, 0%)" fill-opacity="1" d="M 378.378906 432.433594 L 405.40625 432.433594 L 405.40625 459.460938 L 378.378906 459.460938 Z M 378.378906 432.433594 "/>
<path fill-rule="nonzero" fill="rgb(0%, 0%, 0%)" fill-opacity="1" d="M 432.433594 432.433594 L 459.460938 432.433594 L 459.460938 459.460938 L 432.433594 459.460938 Z M 432.433594 432.433594 "/>
<path fill-rule="nonzero" fill="rgb(0%, 0%, 0%)" fill-opacity="1" d="M 459.460938 432.433594 L 486.488281 432.433594 L 486.488281 459.460938 L 459.460938 459.460938 Z M 459.460938 432.433594 "/>
<path fill-rule="nonzero" fill="rgb(0%, 0%, 0%)" fill-opacity="1" d="M 567.566406 432.433594 L 594.59375 432.433594 L 594.59375 459.460938 L 567.566406 459.460938 Z M 567.566406 432.433594 "/>
<path fill-rule="nonzero" fill="rgb(0%, 0%, 0%)" fill-opacity="1" d="M 621.621094 432.433594 L 648.648438 432.433594 L 648.648438 459.460938 L 621.621094 459.460938 Z M 621.621094 432.433594 "/>
<path fill-rule="nonzero" fill="rgb(0%, 0%, 0%)" fill-opacity="1" d="M 648.648438 432.433594 L 675.675781 432.433594 L 675.675781 459.460938 L 648.648438 459.460938 Z M 648.648438 432.433594 "/>
<path fill-rule="nonzero" fill="rgb(0%, 0%, 0%)" fill-opacity="1" d="M 729.730469 432.433594 L 756.757812 432.433594 L 756.757812 459.460938 L 729.730469 459.460938 Z M 729.730469 432.433594 "/>
<path fill-rule="nonzero" fill="rgb(0%, 0%, 0%)" fill-opacity="1" d="M 756.757812 432.433594 L 783.785156 432.433594 L 783.785156 459.460938 L 756.757812 459.460938 Z M 756.757812 432.433594 "/>
<path fill-rule="nonzero" fill="rgb(0%, 0%, 0%)" fill-opacity="1" d="M 783.785156 432.433594 L 810.8125 432.433594 L 810.8125 459.460938 L 783.785156 459.460938 Z M 783.785156 432.433594 "/>
<path fill-rule="nonzero" fill="rgb(0%, 0%, 0%)" fill-opacity="1" d="M 810.8125 432.433594 L 837.835938 432.433594 L 837.835938 459.460938 L 810.8125 459.460938 Z M 810.8125 432.433594 "/>
<path fill-rule="nonzero" fill="rgb(0%, 0%, 0%)" fill-opacity="1" d="M 837.835938 432.433594 L 864.863281 432.433594 L 864.863281 459.460938 L 837.835938 459.460938 Z M 837.835938 432.433594 "/>
<path fill-rule="nonzero" fill="rgb(0%, 0%, 0%)" fill-opacity="1" d="M 108.109375 459.460938 L 135.136719 459.460938 L 135.136719 486.488281 L 108.109375 486.488281 Z M 108.109375 459.460938 "/>
<path fill-rule="nonzero" fill="rgb(0%, 0%, 0%)" fill-opacity="1" d="M 135.136719 459.460938 L 162.164062 459.460938 L 162.164062 486.488281 L 135.136719 486.488281 Z M 135.136719 459.460938 "/>
<path fill-rule="nonzero" fill="rgb(0%, 0%, 0%)" fill-opacity="1" d="M 216.214844 459.460938 L 243.242188 459.460938 L 243.242188 486.488281 L 216.214844 486.488281 Z M 216.214844 459.460938 "/>
<path fill-rule="nonzero" fill="rgb(0%, 0%, 0%)" fill-opacity="1" d="M 243.242188 459.460938 L 270.269531 459.460938 L 270.269531 486.488281 L 243.242188 486.488281 Z M 243.242188 459.460938 "/>
<path fill-rule="nonzero" fill="rgb(0%, 0%, 0%)" fill-opacity="1" d="M 351.351562 459.460938 L 378.378906 459.460938 L 378.378906 486.488281 L 351.351562 486.488281 Z M 351.351562 459.460938 "/>
<path fill-rule="nonzero" fill="rgb(0%, 0%, 0%)" fill-opacity="1" d="M 459.460938 459.460938 L 486.488281 459.460938 L 486.488281 486.488281 L 459.460938 486.488281 Z M 459.460938 459.460938 "/>
<path fill-rule="nonzero" fill="rgb(0%, 0%, 0%)" fill-opacity="1" d="M 486.488281 459.460938 L 513.511719 459.460938 L 513.511719 486.488281 L 486.488281 486.488281 Z M 486.488281 459.460938 "/>
<path fill-rule="nonzero" fill="rgb(0%, 0%, 0%)" fill-opacity="1" d="M 540.539062 459.460938 L 567.566406 459.460938 L 567.566406 486.488281 L 540.539062 486.488281 Z M 540.539062 459.460938 "/>
<path fill-rule="nonzero" fill="rgb(0%, 0%, 0%)" fill-opacity="1" d="M 702.703125 459.460938 L 729.730469 459.460938 L 729.730469 486.488281 L 702.703125 486.488281 Z M 702.703125 459.460938 "/>
<path fill-rule="nonzero" fill="rgb(0%, 0%, 0%)" fill-opacity="1" d="M 756.757812 459.460938 L 783.785156 459.460938 L 783.785156 486.488281 L 756.757812 486.488281 Z M 756.757812 459.460938 "/>
<path fill-rule="nonzero" fill="rgb(0%, 0%, 0%)" fill-opacity="1" d="M 810.8125 459.460938 L 837.835938 459.460938 L 837.835938 486.488281 L 810.8125 486.488281 Z M 810.8125 459.460938 "/>
<path fill-rule="nonzero" fill="rgb(0%, 0%, 0%)" fill-opacity="1" d="M 135.136719 486.488281 L 162.164062 486.488281 L 162.164062 513.511719 L 135.136719 513.511719 Z M 135.136719 486.488281 "/>
<path fill-rule="nonzero" fill="rgb(0%, 0%, 0%)" fill-opacity="1" d="M 162.164062 486.488281 L 189.1875 486.488281 L 189.1875 513.511719 L 162.164062 513.511719 Z M 162.164062 486.488281 "/>
<path fill-rule="nonzero" fill="rgb(0%, 0%, 0%)" fill-opacity="1" d="M 189.1875 486.488281 L 216.214844 486.488281 L 216.214844 513.511719 L 189.1875 513.511719 Z M 189.1875 486.488281 "/>
<path fill-rule="nonzero" fill="rgb(0%, 0%, 0%)" fill-opacity="1" d="M 216.214844 486.488281 L 243.242188 486.488281 L 243.242188 513.511719 L 216.214844 513.511719 Z M 216.214844 486.488281 "/>
<path fill-rule="nonzero" fill="rgb(0%, 0%, 0%)" fill-opacity="1" d="M 270.269531 486.488281 L 297.296875 486.488281 L 297.296875 513.511719 L 270.269531 513.511719 Z M 270.269531 486.488281 "/>
<path fill-rule="nonzero" fill="rgb(0%, 0%, 0%)" fill-opacity="1" d="M 324.324219 486.488281 L 351.351562 486.488281 L 351.351562 513.511719 L 324.324219 513.511719 Z M 324.324219 486.488281 "/>
<path fill-rule="nonzero" fill="rgb(0%, 0%, 0%)" fill-opacity="1" d="M 351.351562 486.488281 L 378.378906 486.488281 L 378.378906 513.511719 L 351.351562 513.511719 Z M 351.351562 486.488281 "/>
<path fill-rule="nonzero" fill="rgb(0%, 0%, 0%)" fill-opacity="1" d="M 378.378906 486.488281 L 405.40625 486.488281 L 405.40625 513.511719 L 378.378906 513.511719 Z M 378.378906 486.488281 "/>
<path fill-rule="nonzero" fill="rgb(0%, 0%, 0%)" fill-opacity="1" d="M 405.40625 486.488281 L 432.433594 486.488281 L 432.433594 513.511719 L 405.40625 513.511719 Z M 405.40625 486.488281 "/>
<path fill-rule="nonzero" fill="rgb(0%, 0%, 0%)" fill-opacity="1" d="M 432.433594 486.488281 L 459.460938 486.488281 L 459.460938 513.511719 L 432.433594 513.511719 Z M 432.433594 486.488281 "/>
<path fill-rule="nonzero" fill="rgb(0%, 0%, 0%)" fill-opacity="1" d="M 540.539062 486.488281 L 567.566406 486.488281 L 567.566406 513.511719 L 540.539062 513.511719 Z M 540.539062 486.488281 "/>
<path fill-rule="nonzero" fill="rgb(0%, 0%, 0%)" fill-opacity="1" d="M 594.59375 486.488281 L 621.621094 486.488281 L 621.621094 513.511719 L 594.59375 513.511719 Z M 594.59375 486.488281 "/>
<path fill-rule="nonzero" fill="rgb(0%, 0%, 0%)" fill-opacity="1" d="M 621.621094 486.488281 L 648.648438 486.488281 L 648.648438 513.511719 L 621.621094 513.511719 Z M 621.621094 486.488281 "/>
<path fill-rule="nonzero" fill="rgb(0%, 0%, 0%)" fill-opacity="1" d="M 702.703125 486.488281 L 729.730469 486.488281 L 729.730469 513.511719 L 702.703125 513.511719 Z M 702.703125 486.488281 "/>
<path fill-rule="nonzero" fill="rgb(0%, 0%, 0%)" fill-opacity="1" d="M 729.730469 486.488281 L 756.757812 486.488281 L 756.757812 513.511719 L 729.730469 513.511719 Z M 729.730469 486.488281 "/>
<path fill-rule="nonzero" fill="rgb(0%, 0%, 0%)" fill-opacity="1" d="M 756.757812 486.488281 L 783.785156 486.488281 L 783.785156 513.511719 L 756.757812 513.511719 Z M 756.757812 486.488281 "/>
<path fill-rule="nonzero" fill="rgb(0%, 0%, 0%)" fill-opacity="1" d="M 783.785156 486.488281 L 810.8125 486.488281 L 810.8125 513.511719 L 783.785156 513.511719 Z M 783.785156 486.488281 "/>
<path fill-rule="nonzero" fill="rgb(0%, 0%, 0%)" fill-opacity="1" d="M 810.8125 486.488281 L 837.835938 486.488281 L 837.835938 513.511719 L 810.8125 513.511719 Z M 810.8125 486.488281 "/>
<path fill-rule="nonzero" fill="rgb(0%, 0%, 0%)" fill-opacity="1" d="M 837.835938 486.488281 L 864.863281 486.488281 L 864.863281 513.511719 L 837.835938 513.511719 Z M 837.835938 486.488281 "/>
<path fill-rule="nonzero" fill="rgb(0%, 0%, 0%)" fill-opacity="1" d="M 135.136719 513.511719 L 162.164062 513.511719 L 162.164062 540.539062 L 135.136719 540.539062 Z M 135.136719 513.511719 "/>
<path fill-rule="nonzero" fill="rgb(0%, 0%, 0%)" fill-opacity="1" d="M 189.1875 513.511719 L 216.214844 513.511719 L 216.214844 540.539062 L 189.1875 540.539062 Z M 189.1875 513.511719 "/>
<path fill-rule="nonzero" fill="rgb(0%, 0%, 0%)" fill-opacity="1" d="M 216.214844 513.511719 L 243.242188 513.511719 L 243.242188 540.539062 L 216.214844 540.539062 Z M 216.214844 513.511719 "/>
<path fill-rule="nonzero" fill="rgb(0%, 0%, 0%)" fill-opacity="1" d="M 243.242188 513.511719 L 270.269531 513.511719 L 270.269531 540.539062 L 243.242188 540.539062 Z M 243.242188 513.511719 "/>
<path fill-rule="nonzero" fill="rgb(0%, 0%, 0%)" fill-opacity="1" d="M 324.324219 513.511719 L 351.351562 513.511719 L 351.351562 540.539062 L 324.324219 540.539062 Z M 324.324219 513.511719 "/>
<path fill-rule="nonzero" fill="rgb(0%, 0%, 0%)" fill-opacity="1" d="M 405.40625 513.511719 L 432.433594 513.511719 L 432.433594 540.539062 L 405.40625 540.539062 Z M 405.40625 513.511719 "/>
<path fill-rule="nonzero" fill="rgb(0%, 0%, 0%)" fill-opacity="1" d="M 486.488281 513.511719 L 513.511719 513.511719 L 513.511719 540.539062 L 486.488281 540.539062 Z M 486.488281 513.511719 "/>
<path fill-rule="nonzero" fill="rgb(0%, 0%, 0%)" fill-opacity="1" d="M 621.621094 513.511719 L 648.648438 513.511719 L 648.648438 540.539062 L 621.621094 540.539062 Z M 621.621094 513.511719 "/>
<path fill-rule="nonzero" fill="rgb(0%, 0%, 0%)" fill-opacity="1" d="M 648.648438 513.511719 L 675.675781 513.511719 L 675.675781 540.539062 L 648.648438 540.539062 Z M 648.648438 513.511719 "/>
<path fill-rule="nonzero" fill="rgb(0%, 0%, 0%)" fill-opacity="1" d="M 675.675781 513.511719 L 702.703125 513.511719 L 702.703125 540.539062 L 675.675781 540.539062 Z M 675.675781 513.511719 "/>
<path fill-rule="nonzero" fill="rgb(0%, 0%, 0%)" fill-opacity="1" d="M 837.835938 513.511719 L 864.863281 513.511719 L 864.863281 540.539062 L 837.835938 540.539062 Z M 837.835938 513.511719 "/>
<path fill-rule="nonzero" fill="rgb(0%, 0%, 0%)" fill-opacity="1" d="M 108.109375 540.539062 L 135.136719 540.539062 L 135.136719 567.566406 L 108.109375 567.566406 Z M 108.109375 540.539062 "/>
<path fill-rule="nonzero" fill="rgb(0%, 0%, 0%)" fill-opacity="1" d="M 162.164062 540.539062 L 189.1875 540.539062 L 189.1875 567.566406 L 162.164062 567.566406 Z M 162.164062 540.539062 "/>
<path fill-rule="nonzero" fill="rgb(0%, 0%, 0%)" fill-opacity="1" d="M 189.1875 540.539062 L 216.214844 540.539062 L 216.214844 567.566406 L 189.1875 567.566406 Z M 189.1875 540.539062 "/>
<path fill-rule="nonzero" fill="rgb(0%, 0%, 0%)" fill-opacity="1" d="M 270.269531 540.539062 L 297.296875 540.539062 L 297.296875 567.566406 L 270.269531 567.566406 Z M 270.269531 540.539062 "/>
<path fill-rule="nonzero" fill="rgb(0%, 0%, 0%)" fill-opacity="1" d="M 297.296875 540.539062 L 324.324219 540.539062 L 324.324219 567.566406 L 297.296875 567.566406 Z M 297.296875 540.539062 "/>
<path fill-rule="nonzero" fill="rgb(0%, 0%, 0%)" fill-opacity="1" d="M 324.324219 540.539062 L 351.351562 540.539062 L 351.351562 567.566406 L 324.324219 567.566406 Z M 324.324219 540.539062 "/>
<path fill-rule="nonzero" fill="rgb(0%, 0%, 0%)" fill-opacity="1" d="M 378.378906 540.539062 L 405.40625 540.539062 L 405.40625 567.566406 L 378.378906 567.566406 Z M 378.378906 540.539062 "/>
<path fill-rule="nonzero" fill="rgb(0%, 0%, 0%)" fill-opacity="1" d="M 405.40625 540.539062 L 432.433594 540.539062 L 432.433594 567.566406 L 405.40625 567.566406 Z M 405.40625 540.539062 "/>
<path fill-rule="nonzero" fill="rgb(0%, 0%, 0%)" fill-opacity="1" d="M 459.460938 540.539062 L 486.488281 540.539062 L 486.488281 567.566406 L 459.460938 567.566406 Z M 459.460938 540.539062 "/>
<path fill-rule="nonzero" fill="rgb(0%, 0%, 0%)" fill-opacity="1" d="M 486.488281 540.539062 L 513.511719 540.539062 L 513.511719 567.566406 L 486.488281 567.566406 Z M 486.488281 540.539062 "/>
<path fill-rule="nonzero" fill="rgb(0%, 0%, 0%)" fill-opacity="1" d="M 513.511719 540.539062 L 540.539062 540.539062 L 540.539062 567.566406 L 513.511719 567.566406 Z M 513.511719 540.539062 "/>
<path fill-rule="nonzero" fill="rgb(0%, 0%, 0%)" fill-opacity="1" d="M 540.539062 540.539062 L 567.566406 540.539062 L 567.566406 567.566406 L 540.539062 567.566406 Z M 540.539062 540.539062 "/>
<path fill-rule="nonzero" fill="rgb(0%, 0%, 0%)" fill-opacity="1" d="M 621.621094 540.539062 L 648.648438 540.539062 L 648.648438 567.566406 L 621.621094 567.566406 Z M 621.621094 540.539062 "/>
<path fill-rule="nonzero" fill="rgb(0%, 0%, 0%)" fill-opacity="1" d="M 702.703125 540.539062 L 729.730469 540.539062 L 729.730469 567.566406 L 702.703125 567.566406 Z M 702.703125 540.539062 "/>
<path fill-rule="nonzero" fill="rgb(0%, 0%, 0%)" fill-opacity="1" d="M 783.785156 540.539062 L 810.8125 540.539062 L 810.8125 567.566406 L 783.785156 567.566406 Z M 783.785156 540.539062 "/>
<path fill-rule="nonzero" fill="rgb(0%, 0%, 0%)" fill-opacity="1" d="M 810.8125 540.539062 L 837.835938 540.539062 L 837.835938 567.566406 L 810.8125 567.566406 Z M 810.8125 540.539062 "/>
<path fill-rule="nonzero" fill="rgb(0%, 0%, 0%)" fill-opacity="1" d="M 837.835938 540.539062 L 864.863281 540.539062 L 864.863281 567.566406 L 837.835938 567.566406 Z M 837.835938 540.539062 "/>
<path fill-rule="nonzero" fill="rgb(0%, 0%, 0%)" fill-opacity="1" d="M 108.109375 567.566406 L 135.136719 567.566406 L 135.136719 594.59375 L 108.109375 594.59375 Z M 108.109375 567.566406 "/>
<path fill-rule="nonzero" fill="rgb(0%, 0%, 0%)" fill-opacity="1" d="M 162.164062 567.566406 L 189.1875 567.566406 L 189.1875 594.59375 L 162.164062 594.59375 Z M 162.164062 567.566406 "/>
<path fill-rule="nonzero" fill="rgb(0%, 0%, 0%)" fill-opacity="1" d="M 243.242188 567.566406 L 270.269531 567.566406 L 270.269531 594.59375 L 243.242188 594.59375 Z M 243.242188 567.566406 "/>
<path fill-rule="nonzero" fill="rgb(0%, 0%, 0%)" fill-opacity="1" d="M 432.433594 567.566406 L 459.460938 567.566406 L 459.460938 594.59375 L 432.433594 594.59375 Z M 432.433594 567.566406 "/>
<path fill-rule="nonzero" fill="rgb(0%, 0%, 0%)" fill-opacity="1" d="M 621.621094 567.566406 L 648.648438 567.566406 L 648.648438 594.59375 L 621.621094 594.59375 Z M 621.621094 567.566406 "/>
<path fill-rule="nonzero" fill="rgb(0%, 0%, 0%)" fill-opacity="1" d="M 648.648438 567.566406 L 675.675781 567.566406 L 675.675781 594.59375 L 648.648438 594.59375 Z M 648.648438 567.566406 "/>
<path fill-rule="nonzero" fill="rgb(0%, 0%, 0%)" fill-opacity="1" d="M 729.730469 567.566406 L 756.757812 567.566406 L 756.757812 594.59375 L 729.730469 594.59375 Z M 729.730469 567.566406 "/>
<path fill-rule="nonzero" fill="rgb(0%, 0%, 0%)" fill-opacity="1" d="M 756.757812 567.566406 L 783.785156 567.566406 L 783.785156 594.59375 L 756.757812 594.59375 Z M 756.757812 567.566406 "/>
<path fill-rule="nonzero" fill="rgb(0%, 0%, 0%)" fill-opacity="1" d="M 810.8125 567.566406 L 837.835938 567.566406 L 837.835938 594.59375 L 810.8125 594.59375 Z M 810.8125 567.566406 "/>
<path fill-rule="nonzero" fill="rgb(0%, 0%, 0%)" fill-opacity="1" d="M 864.863281 567.566406 L 891.890625 567.566406 L 891.890625 594.59375 L 864.863281 594.59375 Z M 864.863281 567.566406 "/>
<path fill-rule="nonzero" fill="rgb(0%, 0%, 0%)" fill-opacity="1" d="M 189.1875 594.59375 L 216.214844 594.59375 L 216.214844 621.621094 L 189.1875 621.621094 Z M 189.1875 594.59375 "/>
<path fill-rule="nonzero" fill="rgb(0%, 0%, 0%)" fill-opacity="1" d="M 216.214844 594.59375 L 243.242188 594.59375 L 243.242188 621.621094 L 216.214844 621.621094 Z M 216.214844 594.59375 "/>
<path fill-rule="nonzero" fill="rgb(0%, 0%, 0%)" fill-opacity="1" d="M 270.269531 594.59375 L 297.296875 594.59375 L 297.296875 621.621094 L 270.269531 621.621094 Z M 270.269531 594.59375 "/>
<path fill-rule="nonzero" fill="rgb(0%, 0%, 0%)" fill-opacity="1" d="M 324.324219 594.59375 L 351.351562 594.59375 L 351.351562 621.621094 L 324.324219 621.621094 Z M 324.324219 594.59375 "/>
<path fill-rule="nonzero" fill="rgb(0%, 0%, 0%)" fill-opacity="1" d="M 378.378906 594.59375 L 405.40625 594.59375 L 405.40625 621.621094 L 378.378906 621.621094 Z M 378.378906 594.59375 "/>
<path fill-rule="nonzero" fill="rgb(0%, 0%, 0%)" fill-opacity="1" d="M 459.460938 594.59375 L 486.488281 594.59375 L 486.488281 621.621094 L 459.460938 621.621094 Z M 459.460938 594.59375 "/>
<path fill-rule="nonzero" fill="rgb(0%, 0%, 0%)" fill-opacity="1" d="M 486.488281 594.59375 L 513.511719 594.59375 L 513.511719 621.621094 L 486.488281 621.621094 Z M 486.488281 594.59375 "/>
<path fill-rule="nonzero" fill="rgb(0%, 0%, 0%)" fill-opacity="1" d="M 513.511719 594.59375 L 540.539062 594.59375 L 540.539062 621.621094 L 513.511719 621.621094 Z M 513.511719 594.59375 "/>
<path fill-rule="nonzero" fill="rgb(0%, 0%, 0%)" fill-opacity="1" d="M 702.703125 594.59375 L 729.730469 594.59375 L 729.730469 621.621094 L 702.703125 621.621094 Z M 702.703125 594.59375 "/>
<path fill-rule="nonzero" fill="rgb(0%, 0%, 0%)" fill-opacity="1" d="M 756.757812 594.59375 L 783.785156 594.59375 L 783.785156 621.621094 L 756.757812 621.621094 Z M 756.757812 594.59375 "/>
<path fill-rule="nonzero" fill="rgb(0%, 0%, 0%)" fill-opacity="1" d="M 783.785156 594.59375 L 810.8125 594.59375 L 810.8125 621.621094 L 783.785156 621.621094 Z M 783.785156 594.59375 "/>
<path fill-rule="nonzero" fill="rgb(0%, 0%, 0%)" fill-opacity="1" d="M 810.8125 594.59375 L 837.835938 594.59375 L 837.835938 621.621094 L 810.8125 621.621094 Z M 810.8125 594.59375 "/>
<path fill-rule="nonzero" fill="rgb(0%, 0%, 0%)" fill-opacity="1" d="M 837.835938 594.59375 L 864.863281 594.59375 L 864.863281 621.621094 L 837.835938 621.621094 Z M 837.835938 594.59375 "/>
<path fill-rule="nonzero" fill="rgb(0%, 0%, 0%)" fill-opacity="1" d="M 162.164062 621.621094 L 189.1875 621.621094 L 189.1875 648.648438 L 162.164062 648.648438 Z M 162.164062 621.621094 "/>
<path fill-rule="nonzero" fill="rgb(0%, 0%, 0%)" fill-opacity="1" d="M 189.1875 621.621094 L 216.214844 621.621094 L 216.214844 648.648438 L 189.1875 648.648438 Z M 189.1875 621.621094 "/>
<path fill-rule="nonzero" fill="rgb(0%, 0%, 0%)" fill-opacity="1" d="M 216.214844 621.621094 L 243.242188 621.621094 L 243.242188 648.648438 L 216.214844 648.648438 Z M 216.214844 621.621094 "/>
<path fill-rule="nonzero" fill="rgb(0%, 0%, 0%)" fill-opacity="1" d="M 243.242188 621.621094 L 270.269531 621.621094 L 270.269531 648.648438 L 243.242188 648.648438 Z M 243.242188 621.621094 "/>
<path fill-rule="nonzero" fill="rgb(0%, 0%, 0%)" fill-opacity="1" d="M 324.324219 621.621094 L 351.351562 621.621094 L 351.351562 648.648438 L 324.324219 648.648438 Z M 324.324219 621.621094 "/>
<path fill-rule="nonzero" fill="rgb(0%, 0%, 0%)" fill-opacity="1" d="M 351.351562 621.621094 L 378.378906 621.621094 L 378.378906 648.648438 L 351.351562 648.648438 Z M 351.351562 621.621094 "/>
<path fill-rule="nonzero" fill="rgb(0%, 0%, 0%)" fill-opacity="1" d="M 378.378906 621.621094 L 405.40625 621.621094 L 405.40625 648.648438 L 378.378906 648.648438 Z M 378.378906 621.621094 "/>
<path fill-rule="nonzero" fill="rgb(0%, 0%, 0%)" fill-opacity="1" d="M 405.40625 621.621094 L 432.433594 621.621094 L 432.433594 648.648438 L 405.40625 648.648438 Z M 405.40625 621.621094 "/>
<path fill-rule="nonzero" fill="rgb(0%, 0%, 0%)" fill-opacity="1" d="M 432.433594 621.621094 L 459.460938 621.621094 L 459.460938 648.648438 L 432.433594 648.648438 Z M 432.433594 621.621094 "/>
<path fill-rule="nonzero" fill="rgb(0%, 0%, 0%)" fill-opacity="1" d="M 459.460938 621.621094 L 486.488281 621.621094 L 486.488281 648.648438 L 459.460938 648.648438 Z M 459.460938 621.621094 "/>
<path fill-rule="nonzero" fill="rgb(0%, 0%, 0%)" fill-opacity="1" d="M 513.511719 621.621094 L 540.539062 621.621094 L 540.539062 648.648438 L 513.511719 648.648438 Z M 513.511719 621.621094 "/>
<path fill-rule="nonzero" fill="rgb(0%, 0%, 0%)" fill-opacity="1" d="M 540.539062 621.621094 L 567.566406 621.621094 L 567.566406 648.648438 L 540.539062 648.648438 Z M 540.539062 621.621094 "/>
<path fill-rule="nonzero" fill="rgb(0%, 0%, 0%)" fill-opacity="1" d="M 621.621094 621.621094 L 648.648438 621.621094 L 648.648438 648.648438 L 621.621094 648.648438 Z M 621.621094 621.621094 "/>
<path fill-rule="nonzero" fill="rgb(0%, 0%, 0%)" fill-opacity="1" d="M 648.648438 621.621094 L 675.675781 621.621094 L 675.675781 648.648438 L 648.648438 648.648438 Z M 648.648438 621.621094 "/>
<path fill-rule="nonzero" fill="rgb(0%, 0%, 0%)" fill-opacity="1" d="M 675.675781 621.621094 L 702.703125 621.621094 L 702.703125 648.648438 L 675.675781 648.648438 Z M 675.675781 621.621094 "/>
<path fill-rule="nonzero" fill="rgb(0%, 0%, 0%)" fill-opacity="1" d="M 864.863281 621.621094 L 891.890625 621.621094 L 891.890625 648.648438 L 864.863281 648.648438 Z M 864.863281 621.621094 "/>
<path fill-rule="nonzero" fill="rgb(0%, 0%, 0%)" fill-opacity="1" d="M 108.109375 648.648438 L 135.136719 648.648438 L 135.136719 675.675781 L 108.109375 675.675781 Z M 108.109375 648.648438 "/>
<path fill-rule="nonzero" fill="rgb(0%, 0%, 0%)" fill-opacity="1" d="M 135.136719 648.648438 L 162.164062 648.648438 L 162.164062 675.675781 L 135.136719 675.675781 Z M 135.136719 648.648438 "/>
<path fill-rule="nonzero" fill="rgb(0%, 0%, 0%)" fill-opacity="1" d="M 189.1875 648.648438 L 216.214844 648.648438 L 216.214844 675.675781 L 189.1875 675.675781 Z M 189.1875 648.648438 "/>
<path fill-rule="nonzero" fill="rgb(0%, 0%, 0%)" fill-opacity="1" d="M 270.269531 648.648438 L 297.296875 648.648438 L 297.296875 675.675781 L 270.269531 675.675781 Z M 270.269531 648.648438 "/>
<path fill-rule="nonzero" fill="rgb(0%, 0%, 0%)" fill-opacity="1" d="M 297.296875 648.648438 L 324.324219 648.648438 L 324.324219 675.675781 L 297.296875 675.675781 Z M 297.296875 648.648438 "/>
<path fill-rule="nonzero" fill="rgb(0%, 0%, 0%)" fill-opacity="1" d="M 324.324219 648.648438 L 351.351562 648.648438 L 351.351562 675.675781 L 324.324219 675.675781 Z M 324.324219 648.648438 "/>
<path fill-rule="nonzero" fill="rgb(0%, 0%, 0%)" fill-opacity="1" d="M 351.351562 648.648438 L 378.378906 648.648438 L 378.378906 675.675781 L 351.351562 675.675781 Z M 351.351562 648.648438 "/>
<path fill-rule="nonzero" fill="rgb(0%, 0%, 0%)" fill-opacity="1" d="M 378.378906 648.648438 L 405.40625 648.648438 L 405.40625 675.675781 L 378.378906 675.675781 Z M 378.378906 648.648438 "/>
<path fill-rule="nonzero" fill="rgb(0%, 0%, 0%)" fill-opacity="1" d="M 405.40625 648.648438 L 432.433594 648.648438 L 432.433594 675.675781 L 405.40625 675.675781 Z M 405.40625 648.648438 "/>
<path fill-rule="nonzero" fill="rgb(0%, 0%, 0%)" fill-opacity="1" d="M 432.433594 648.648438 L 459.460938 648.648438 L 459.460938 675.675781 L 432.433594 675.675781 Z M 432.433594 648.648438 "/>
<path fill-rule="nonzero" fill="rgb(0%, 0%, 0%)" fill-opacity="1" d="M 459.460938 648.648438 L 486.488281 648.648438 L 486.488281 675.675781 L 459.460938 675.675781 Z M 459.460938 648.648438 "/>
<path fill-rule="nonzero" fill="rgb(0%, 0%, 0%)" fill-opacity="1" d="M 567.566406 648.648438 L 594.59375 648.648438 L 594.59375 675.675781 L 567.566406 675.675781 Z M 567.566406 648.648438 "/>
<path fill-rule="nonzero" fill="rgb(0%, 0%, 0%)" fill-opacity="1" d="M 621.621094 648.648438 L 648.648438 648.648438 L 648.648438 675.675781 L 621.621094 675.675781 Z M 621.621094 648.648438 "/>
<path fill-rule="nonzero" fill="rgb(0%, 0%, 0%)" fill-opacity="1" d="M 648.648438 648.648438 L 675.675781 648.648438 L 675.675781 675.675781 L 648.648438 675.675781 Z M 648.648438 648.648438 "/>
<path fill-rule="nonzero" fill="rgb(0%, 0%, 0%)" fill-opacity="1" d="M 675.675781 648.648438 L 702.703125 648.648438 L 702.703125 675.675781 L 675.675781 675.675781 Z M 675.675781 648.648438 "/>
<path fill-rule="nonzero" fill="rgb(0%, 0%, 0%)" fill-opacity="1" d="M 702.703125 648.648438 L 729.730469 648.648438 L 729.730469 675.675781 L 702.703125 675.675781 Z M 702.703125 648.648438 "/>
<path fill-rule="nonzero" fill="rgb(0%, 0%, 0%)" fill-opacity="1" d="M 729.730469 648.648438 L 756.757812 648.648438 L 756.757812 675.675781 L 729.730469 675.675781 Z M 729.730469 648.648438 "/>
<path fill-rule="nonzero" fill="rgb(0%, 0%, 0%)" fill-opacity="1" d="M 756.757812 648.648438 L 783.785156 648.648438 L 783.785156 675.675781 L 756.757812 675.675781 Z M 756.757812 648.648438 "/>
<path fill-rule="nonzero" fill="rgb(0%, 0%, 0%)" fill-opacity="1" d="M 324.324219 675.675781 L 351.351562 675.675781 L 351.351562 702.703125 L 324.324219 702.703125 Z M 324.324219 675.675781 "/>
<path fill-rule="nonzero" fill="rgb(0%, 0%, 0%)" fill-opacity="1" d="M 405.40625 675.675781 L 432.433594 675.675781 L 432.433594 702.703125 L 405.40625 702.703125 Z M 405.40625 675.675781 "/>
<path fill-rule="nonzero" fill="rgb(0%, 0%, 0%)" fill-opacity="1" d="M 459.460938 675.675781 L 486.488281 675.675781 L 486.488281 702.703125 L 459.460938 702.703125 Z M 459.460938 675.675781 "/>
<path fill-rule="nonzero" fill="rgb(0%, 0%, 0%)" fill-opacity="1" d="M 486.488281 675.675781 L 513.511719 675.675781 L 513.511719 702.703125 L 486.488281 702.703125 Z M 486.488281 675.675781 "/>
<path fill-rule="nonzero" fill="rgb(0%, 0%, 0%)" fill-opacity="1" d="M 540.539062 675.675781 L 567.566406 675.675781 L 567.566406 702.703125 L 540.539062 702.703125 Z M 540.539062 675.675781 "/>
<path fill-rule="nonzero" fill="rgb(0%, 0%, 0%)" fill-opacity="1" d="M 621.621094 675.675781 L 648.648438 675.675781 L 648.648438 702.703125 L 621.621094 702.703125 Z M 621.621094 675.675781 "/>
<path fill-rule="nonzero" fill="rgb(0%, 0%, 0%)" fill-opacity="1" d="M 648.648438 675.675781 L 675.675781 675.675781 L 675.675781 702.703125 L 648.648438 702.703125 Z M 648.648438 675.675781 "/>
<path fill-rule="nonzero" fill="rgb(0%, 0%, 0%)" fill-opacity="1" d="M 756.757812 675.675781 L 783.785156 675.675781 L 783.785156 702.703125 L 756.757812 702.703125 Z M 756.757812 675.675781 "/>
<path fill-rule="nonzero" fill="rgb(0%, 0%, 0%)" fill-opacity="1" d="M 783.785156 675.675781 L 810.8125 675.675781 L 810.8125 702.703125 L 783.785156 702.703125 Z M 783.785156 675.675781 "/>
<path fill-rule="nonzero" fill="rgb(0%, 0%, 0%)" fill-opacity="1" d="M 810.8125 675.675781 L 837.835938 675.675781 L 837.835938 702.703125 L 810.8125 702.703125 Z M 810.8125 675.675781 "/>
<path fill-rule="nonzero" fill="rgb(0%, 0%, 0%)" fill-opacity="1" d="M 324.324219 702.703125 L 351.351562 702.703125 L 351.351562 729.730469 L 324.324219 729.730469 Z M 324.324219 702.703125 "/>
<path fill-rule="nonzero" fill="rgb(0%, 0%, 0%)" fill-opacity="1" d="M 405.40625 702.703125 L 432.433594 702.703125 L 432.433594 729.730469 L 405.40625 729.730469 Z M 405.40625 702.703125 "/>
<path fill-rule="nonzero" fill="rgb(0%, 0%, 0%)" fill-opacity="1" d="M 432.433594 702.703125 L 459.460938 702.703125 L 459.460938 729.730469 L 432.433594 729.730469 Z M 432.433594 702.703125 "/>
<path fill-rule="nonzero" fill="rgb(0%, 0%, 0%)" fill-opacity="1" d="M 540.539062 702.703125 L 567.566406 702.703125 L 567.566406 729.730469 L 540.539062 729.730469 Z M 540.539062 702.703125 "/>
<path fill-rule="nonzero" fill="rgb(0%, 0%, 0%)" fill-opacity="1" d="M 567.566406 702.703125 L 594.59375 702.703125 L 594.59375 729.730469 L 567.566406 729.730469 Z M 567.566406 702.703125 "/>
<path fill-rule="nonzero" fill="rgb(0%, 0%, 0%)" fill-opacity="1" d="M 648.648438 702.703125 L 675.675781 702.703125 L 675.675781 729.730469 L 648.648438 729.730469 Z M 648.648438 702.703125 "/>
<path fill-rule="nonzero" fill="rgb(0%, 0%, 0%)" fill-opacity="1" d="M 702.703125 702.703125 L 729.730469 702.703125 L 729.730469 729.730469 L 702.703125 729.730469 Z M 702.703125 702.703125 "/>
<path fill-rule="nonzero" fill="rgb(0%, 0%, 0%)" fill-opacity="1" d="M 756.757812 702.703125 L 783.785156 702.703125 L 783.785156 729.730469 L 756.757812 729.730469 Z M 756.757812 702.703125 "/>
<path fill-rule="nonzero" fill="rgb(0%, 0%, 0%)" fill-opacity="1" d="M 783.785156 702.703125 L 810.8125 702.703125 L 810.8125 729.730469 L 783.785156 729.730469 Z M 783.785156 702.703125 "/>
<path fill-rule="nonzero" fill="rgb(0%, 0%, 0%)" fill-opacity="1" d="M 810.8125 702.703125 L 837.835938 702.703125 L 837.835938 729.730469 L 810.8125 729.730469 Z M 810.8125 702.703125 "/>
<path fill-rule="nonzero" fill="rgb(0%, 0%, 0%)" fill-opacity="1" d="M 864.863281 702.703125 L 891.890625 702.703125 L 891.890625 729.730469 L 864.863281 729.730469 Z M 864.863281 702.703125 "/>
<path fill-rule="nonzero" fill="rgb(0%, 0%, 0%)" fill-opacity="1" d="M 486.488281 729.730469 L 513.511719 729.730469 L 513.511719 756.757812 L 486.488281 756.757812 Z M 486.488281 729.730469 "/>
<path fill-rule="nonzero" fill="rgb(0%, 0%, 0%)" fill-opacity="1" d="M 567.566406 729.730469 L 594.59375 729.730469 L 594.59375 756.757812 L 567.566406 756.757812 Z M 567.566406 729.730469 "/>
<path fill-rule="nonzero" fill="rgb(0%, 0%, 0%)" fill-opacity="1" d="M 648.648438 729.730469 L 675.675781 729.730469 L 675.675781 756.757812 L 648.648438 756.757812 Z M 648.648438 729.730469 "/>
<path fill-rule="nonzero" fill="rgb(0%, 0%, 0%)" fill-opacity="1" d="M 756.757812 729.730469 L 783.785156 729.730469 L 783.785156 756.757812 L 756.757812 756.757812 Z M 756.757812 729.730469 "/>
<path fill-rule="nonzero" fill="rgb(0%, 0%, 0%)" fill-opacity="1" d="M 810.8125 729.730469 L 837.835938 729.730469 L 837.835938 756.757812 L 810.8125 756.757812 Z M 810.8125 729.730469 "/>
<path fill-rule="nonzero" fill="rgb(0%, 0%, 0%)" fill-opacity="1" d="M 837.835938 729.730469 L 864.863281 729.730469 L 864.863281 756.757812 L 837.835938 756.757812 Z M 837.835938 729.730469 "/>
<path fill-rule="nonzero" fill="rgb(0%, 0%, 0%)" fill-opacity="1" d="M 324.324219 756.757812 L 351.351562 756.757812 L 351.351562 783.785156 L 324.324219 783.785156 Z M 324.324219 756.757812 "/>
<path fill-rule="nonzero" fill="rgb(0%, 0%, 0%)" fill-opacity="1" d="M 351.351562 756.757812 L 378.378906 756.757812 L 378.378906 783.785156 L 351.351562 783.785156 Z M 351.351562 756.757812 "/>
<path fill-rule="nonzero" fill="rgb(0%, 0%, 0%)" fill-opacity="1" d="M 378.378906 756.757812 L 405.40625 756.757812 L 405.40625 783.785156 L 378.378906 783.785156 Z M 378.378906 756.757812 "/>
<path fill-rule="nonzero" fill="rgb(0%, 0%, 0%)" fill-opacity="1" d="M 459.460938 756.757812 L 486.488281 756.757812 L 486.488281 783.785156 L 459.460938 783.785156 Z M 459.460938 756.757812 "/>
<path fill-rule="nonzero" fill="rgb(0%, 0%, 0%)" fill-opacity="1" d="M 486.488281 756.757812 L 513.511719 756.757812 L 513.511719 783.785156 L 486.488281 783.785156 Z M 486.488281 756.757812 "/>
<path fill-rule="nonzero" fill="rgb(0%, 0%, 0%)" fill-opacity="1" d="M 513.511719 756.757812 L 540.539062 756.757812 L 540.539062 783.785156 L 513.511719 783.785156 Z M 513.511719 756.757812 "/>
<path fill-rule="nonzero" fill="rgb(0%, 0%, 0%)" fill-opacity="1" d="M 540.539062 756.757812 L 567.566406 756.757812 L 567.566406 783.785156 L 540.539062 783.785156 Z M 540.539062 756.757812 "/>
<path fill-rule="nonzero" fill="rgb(0%, 0%, 0%)" fill-opacity="1" d="M 594.59375 756.757812 L 621.621094 756.757812 L 621.621094 783.785156 L 594.59375 783.785156 Z M 594.59375 756.757812 "/>
<path fill-rule="nonzero" fill="rgb(0%, 0%, 0%)" fill-opacity="1" d="M 621.621094 756.757812 L 648.648438 756.757812 L 648.648438 783.785156 L 621.621094 783.785156 Z M 621.621094 756.757812 "/>
<path fill-rule="nonzero" fill="rgb(0%, 0%, 0%)" fill-opacity="1" d="M 648.648438 756.757812 L 675.675781 756.757812 L 675.675781 783.785156 L 648.648438 783.785156 Z M 648.648438 756.757812 "/>
<path fill-rule="nonzero" fill="rgb(0%, 0%, 0%)" fill-opacity="1" d="M 675.675781 756.757812 L 702.703125 756.757812 L 702.703125 783.785156 L 675.675781 783.785156 Z M 675.675781 756.757812 "/>
<path fill-rule="nonzero" fill="rgb(0%, 0%, 0%)" fill-opacity="1" d="M 702.703125 756.757812 L 729.730469 756.757812 L 729.730469 783.785156 L 702.703125 783.785156 Z M 702.703125 756.757812 "/>
<path fill-rule="nonzero" fill="rgb(0%, 0%, 0%)" fill-opacity="1" d="M 729.730469 756.757812 L 756.757812 756.757812 L 756.757812 783.785156 L 729.730469 783.785156 Z M 729.730469 756.757812 "/>
<path fill-rule="nonzero" fill="rgb(0%, 0%, 0%)" fill-opacity="1" d="M 756.757812 756.757812 L 783.785156 756.757812 L 783.785156 783.785156 L 756.757812 783.785156 Z M 756.757812 756.757812 "/>
<path fill-rule="nonzero" fill="rgb(0%, 0%, 0%)" fill-opacity="1" d="M 783.785156 756.757812 L 810.8125 756.757812 L 810.8125 783.785156 L 783.785156 783.785156 Z M 783.785156 756.757812 "/>
<path fill-rule="nonzero" fill="rgb(0%, 0%, 0%)" fill-opacity="1" d="M 864.863281 756.757812 L 891.890625 756.757812 L 891.890625 783.785156 L 864.863281 783.785156 Z M 864.863281 756.757812 "/>
<path fill-rule="nonzero" fill="rgb(0%, 0%, 0%)" fill-opacity="1" d="M 378.378906 783.785156 L 405.40625 783.785156 L 405.40625 810.8125 L 378.378906 810.8125 Z M 378.378906 783.785156 "/>
<path fill-rule="nonzero" fill="rgb(0%, 0%, 0%)" fill-opacity="1" d="M 405.40625 783.785156 L 432.433594 783.785156 L 432.433594 810.8125 L 405.40625 810.8125 Z M 405.40625 783.785156 "/>
<path fill-rule="nonzero" fill="rgb(0%, 0%, 0%)" fill-opacity="1" d="M 567.566406 783.785156 L 594.59375 783.785156 L 594.59375 810.8125 L 567.566406 810.8125 Z M 567.566406 783.785156 "/>
<path fill-rule="nonzero" fill="rgb(0%, 0%, 0%)" fill-opacity="1" d="M 594.59375 783.785156 L 621.621094 783.785156 L 621.621094 810.8125 L 594.59375 810.8125 Z M 594.59375 783.785156 "/>
<path fill-rule="nonzero" fill="rgb(0%, 0%, 0%)" fill-opacity="1" d="M 729.730469 783.785156 L 756.757812 783.785156 L 756.757812 810.8125 L 729.730469 810.8125 Z M 729.730469 783.785156 "/>
<path fill-rule="nonzero" fill="rgb(0%, 0%, 0%)" fill-opacity="1" d="M 783.785156 783.785156 L 810.8125 783.785156 L 810.8125 810.8125 L 783.785156 810.8125 Z M 783.785156 783.785156 "/>
<path fill-rule="nonzero" fill="rgb(0%, 0%, 0%)" fill-opacity="1" d="M 810.8125 783.785156 L 837.835938 783.785156 L 837.835938 810.8125 L 810.8125 810.8125 Z M 810.8125 783.785156 "/>
<path fill-rule="nonzero" fill="rgb(0%, 0%, 0%)" fill-opacity="1" d="M 837.835938 783.785156 L 864.863281 783.785156 L 864.863281 810.8125 L 837.835938 810.8125 Z M 837.835938 783.785156 "/>
<path fill-rule="nonzero" fill="rgb(0%, 0%, 0%)" fill-opacity="1" d="M 351.351562 810.8125 L 378.378906 810.8125 L 378.378906 837.835938 L 351.351562 837.835938 Z M 351.351562 810.8125 "/>
<path fill-rule="nonzero" fill="rgb(0%, 0%, 0%)" fill-opacity="1" d="M 378.378906 810.8125 L 405.40625 810.8125 L 405.40625 837.835938 L 378.378906 837.835938 Z M 378.378906 810.8125 "/>
<path fill-rule="nonzero" fill="rgb(0%, 0%, 0%)" fill-opacity="1" d="M 459.460938 810.8125 L 486.488281 810.8125 L 486.488281 837.835938 L 459.460938 837.835938 Z M 459.460938 810.8125 "/>
<path fill-rule="nonzero" fill="rgb(0%, 0%, 0%)" fill-opacity="1" d="M 486.488281 810.8125 L 513.511719 810.8125 L 513.511719 837.835938 L 486.488281 837.835938 Z M 486.488281 810.8125 "/>
<path fill-rule="nonzero" fill="rgb(0%, 0%, 0%)" fill-opacity="1" d="M 513.511719 810.8125 L 540.539062 810.8125 L 540.539062 837.835938 L 513.511719 837.835938 Z M 513.511719 810.8125 "/>
<path fill-rule="nonzero" fill="rgb(0%, 0%, 0%)" fill-opacity="1" d="M 594.59375 810.8125 L 621.621094 810.8125 L 621.621094 837.835938 L 594.59375 837.835938 Z M 594.59375 810.8125 "/>
<path fill-rule="nonzero" fill="rgb(0%, 0%, 0%)" fill-opacity="1" d="M 621.621094 810.8125 L 648.648438 810.8125 L 648.648438 837.835938 L 621.621094 837.835938 Z M 621.621094 810.8125 "/>
<path fill-rule="nonzero" fill="rgb(0%, 0%, 0%)" fill-opacity="1" d="M 702.703125 810.8125 L 729.730469 810.8125 L 729.730469 837.835938 L 702.703125 837.835938 Z M 702.703125 810.8125 "/>
<path fill-rule="nonzero" fill="rgb(0%, 0%, 0%)" fill-opacity="1" d="M 756.757812 810.8125 L 783.785156 810.8125 L 783.785156 837.835938 L 756.757812 837.835938 Z M 756.757812 810.8125 "/>
<path fill-rule="nonzero" fill="rgb(0%, 0%, 0%)" fill-opacity="1" d="M 810.8125 810.8125 L 837.835938 810.8125 L 837.835938 837.835938 L 810.8125 837.835938 Z M 810.8125 810.8125 "/>
<path fill-rule="nonzero" fill="rgb(0%, 0%, 0%)" fill-opacity="1" d="M 837.835938 810.8125 L 864.863281 810.8125 L 864.863281 837.835938 L 837.835938 837.835938 Z M 837.835938 810.8125 "/>
<path fill-rule="nonzero" fill="rgb(0%, 0%, 0%)" fill-opacity="1" d="M 864.863281 810.8125 L 891.890625 810.8125 L 891.890625 837.835938 L 864.863281 837.835938 Z M 864.863281 810.8125 "/>
<path fill-rule="nonzero" fill="rgb(0%, 0%, 0%)" fill-opacity="1" d="M 405.40625 837.835938 L 432.433594 837.835938 L 432.433594 864.863281 L 405.40625 864.863281 Z M 405.40625 837.835938 "/>
<path fill-rule="nonzero" fill="rgb(0%, 0%, 0%)" fill-opacity="1" d="M 432.433594 837.835938 L 459.460938 837.835938 L 459.460938 864.863281 L 432.433594 864.863281 Z M 432.433594 837.835938 "/>
<path fill-rule="nonzero" fill="rgb(0%, 0%, 0%)" fill-opacity="1" d="M 513.511719 837.835938 L 540.539062 837.835938 L 540.539062 864.863281 L 513.511719 864.863281 Z M 513.511719 837.835938 "/>
<path fill-rule="nonzero" fill="rgb(0%, 0%, 0%)" fill-opacity="1" d="M 540.539062 837.835938 L 567.566406 837.835938 L 567.566406 864.863281 L 540.539062 864.863281 Z M 540.539062 837.835938 "/>
<path fill-rule="nonzero" fill="rgb(0%, 0%, 0%)" fill-opacity="1" d="M 648.648438 837.835938 L 675.675781 837.835938 L 675.675781 864.863281 L 648.648438 864.863281 Z M 648.648438 837.835938 "/>
<path fill-rule="nonzero" fill="rgb(0%, 0%, 0%)" fill-opacity="1" d="M 702.703125 837.835938 L 729.730469 837.835938 L 729.730469 864.863281 L 702.703125 864.863281 Z M 702.703125 837.835938 "/>
<path fill-rule="nonzero" fill="rgb(0%, 0%, 0%)" fill-opacity="1" d="M 729.730469 837.835938 L 756.757812 837.835938 L 756.757812 864.863281 L 729.730469 864.863281 Z M 729.730469 837.835938 "/>
<path fill-rule="nonzero" fill="rgb(0%, 0%, 0%)" fill-opacity="1" d="M 756.757812 837.835938 L 783.785156 837.835938 L 783.785156 864.863281 L 756.757812 864.863281 Z M 756.757812 837.835938 "/>
<path fill-rule="nonzero" fill="rgb(0%, 0%, 0%)" fill-opacity="1" d="M 783.785156 837.835938 L 810.8125 837.835938 L 810.8125 864.863281 L 783.785156 864.863281 Z M 783.785156 837.835938 "/>
<path fill-rule="nonzero" fill="rgb(0%, 0%, 0%)" fill-opacity="1" d="M 810.8125 837.835938 L 837.835938 837.835938 L 837.835938 864.863281 L 810.8125 864.863281 Z M 810.8125 837.835938 "/>
<path fill-rule="nonzero" fill="rgb(0%, 0%, 0%)" fill-opacity="1" d="M 324.324219 864.863281 L 351.351562 864.863281 L 351.351562 891.890625 L 324.324219 891.890625 Z M 324.324219 864.863281 "/>
<path fill-rule="nonzero" fill="rgb(0%, 0%, 0%)" fill-opacity="1" d="M 351.351562 864.863281 L 378.378906 864.863281 L 378.378906 891.890625 L 351.351562 891.890625 Z M 351.351562 864.863281 "/>
<path fill-rule="nonzero" fill="rgb(0%, 0%, 0%)" fill-opacity="1" d="M 405.40625 864.863281 L 432.433594 864.863281 L 432.433594 891.890625 L 405.40625 891.890625 Z M 405.40625 864.863281 "/>
<path fill-rule="nonzero" fill="rgb(0%, 0%, 0%)" fill-opacity="1" d="M 648.648438 864.863281 L 675.675781 864.863281 L 675.675781 891.890625 L 648.648438 891.890625 Z M 648.648438 864.863281 "/>
<path fill-rule="nonzero" fill="rgb(0%, 0%, 0%)" fill-opacity="1" d="M 675.675781 864.863281 L 702.703125 864.863281 L 702.703125 891.890625 L 675.675781 891.890625 Z M 675.675781 864.863281 "/>
<path fill-rule="nonzero" fill="rgb(0%, 0%, 0%)" fill-opacity="1" d="M 702.703125 864.863281 L 729.730469 864.863281 L 729.730469 891.890625 L 702.703125 891.890625 Z M 702.703125 864.863281 "/>
<path fill-rule="nonzero" fill="rgb(0%, 0%, 0%)" fill-opacity="1" d="M 756.757812 864.863281 L 783.785156 864.863281 L 783.785156 891.890625 L 756.757812 891.890625 Z M 756.757812 864.863281 "/>
<path fill-rule="nonzero" fill="rgb(0%, 0%, 0%)" fill-opacity="1" d="M 837.835938 864.863281 L 864.863281 864.863281 L 864.863281 891.890625 L 837.835938 891.890625 Z M 837.835938 864.863281 "/>
<path fill-rule="nonzero" fill="rgb(0%, 0%, 0%)" fill-opacity="1" d="M 108.109375 108.109375 L 297.296875 108.109375 L 297.296875 297.296875 L 108.109375 297.296875 Z M 108.109375 108.109375 "/>
<path fill-rule="nonzero" fill="rgb(100%, 100%, 100%)" fill-opacity="1" d="M 135.136719 135.136719 L 270.269531 135.136719 L 270.269531 270.269531 L 135.136719 270.269531 Z M 135.136719 135.136719 "/>
<path fill-rule="nonzero" fill="rgb(0%, 0%, 0%)" fill-opacity="1" d="M 702.703125 108.109375 L 891.890625 108.109375 L 891.890625 297.296875 L 702.703125 297.296875 Z M 702.703125 108.109375 "/>
<path fill-rule="nonzero" fill="rgb(100%, 100%, 100%)" fill-opacity="1" d="M 729.730469 135.136719 L 864.863281 135.136719 L 864.863281 270.269531 L 729.730469 270.269531 Z M 729.730469 135.136719 "/>
<path fill-rule="nonzero" fill="rgb(0%, 0%, 0%)" fill-opacity="1" d="M 162.164062 162.164062 L 243.242188 162.164062 L 243.242188 243.242188 L 162.164062 243.242188 Z M 162.164062 162.164062 "/>
<path fill-rule="nonzero" fill="rgb(0%, 0%, 0%)" fill-opacity="1" d="M 756.757812 162.164062 L 837.835938 162.164062 L 837.835938 243.242188 L 756.757812 243.242188 Z M 756.757812 162.164062 "/>
<path fill-rule="nonzero" fill="rgb(0%, 0%, 0%)" fill-opacity="1" d="M 108.109375 702.703125 L 297.296875 702.703125 L 297.296875 891.890625 L 108.109375 891.890625 Z M 108.109375 702.703125 "/>
<path fill-rule="nonzero" fill="rgb(100%, 100%, 100%)" fill-opacity="1" d="M 135.136719 729.730469 L 270.269531 729.730469 L 270.269531 864.863281 L 135.136719 864.863281 Z M 135.136719 729.730469 "/>
<path fill-rule="nonzero" fill="rgb(0%, 0%, 0%)" fill-opacity="1" d="M 162.164062 756.757812 L 243.242188 756.757812 L 243.242188 837.835938 L 162.164062 837.835938 Z M 162.164062 756.757812 "/>
</svg>
